:SAMPLES-PER-SECOND 30
:FULLY-SPECIFIED
:DEGREES
140
root  14.37099937 36.11844581 2.572155562 -10.33200073 -66.28800201 8.421005249
lowerback  12.99660015 1.165009975 -1.117380023
upperback  6.175889969 1.23348999 1.396180034
thorax  -0.8632000089 0.4890629947 1.916620016
lowerneck  0.921167016 9.262379646 1.826679945
upperneck  10.27390003 12.43789959 -2.047950029
head  3.431360006 6.121660233 -0.6164810061
lclavicle  0 -9.442270133e-015 7.951389973e-016
lhumerus  -9.287240028 -8.98486042 95.13909912
lradius  2.563380504e-031 -2.428564273e-031 136.5469971
lwrist  -7.062250077e-031 -8.827812596e-032 18.42959976
lhand  -1.496451383e-031 -27.76390076 20.11240005
lfingers  90 7.125020027 -90
lthumb  89.89689403 5.08795885 91.16245106
rclavicle  0 -9.442270133e-015 7.951389973e-016
rhumerus  8.852640152 22.96759987 -83.48719788
rradius  -1.936246484e-031 2.952929662e-031 123.2529984
rwrist  7.062250077e-031 3.531125038e-031 -47.93870163
rhand  -7.920061211e-032 -33.2840004 9.303460121
rfingers  -90 -7.125020027 -90
rthumb  -92.93752616 -24.25625642 -97.11982154
rfemur  -18.03879929 15.53299999 -2.508670092
rtibia  -0 0 65.21250153
rfoot  -0 -24.28280067 -9.107489586
rtoes  5.373923086 19.29304026 -105.8922705
lfemur  -24.6215992 -7.989349842 -1.908210039
ltibia  -0 0 63.33010101
lfoot  9.277073942e-032 -17.90399933 -4.314939976
ltoes  -4.250644065 -19.5611806 -102.515957
141
root  14.2795773 36.23377883 2.477533423 -9.893005371 -64.52200317 7.970993042
lowerback  12.78380013 1.165109992 -1.586480021
upperback  6.174230099 1.191400051 1.429870009
thorax  -0.7580109835 0.4613189995 2.224699974
lowerneck  1.15684998 8.886859894 1.389230013
upperneck  10.23309994 11.89729977 -1.549649954
head  3.290620089 5.85615015 -0.422841996
lclavicle  0 -9.442270133e-015 7.951389973e-016
lhumerus  -9.362420082 -9.158399582 95.5605011
lradius  2.541020584e-031 -2.451949923e-031 136.0220032
lwrist  -1.412450015e-030 8.827812596e-032 18.77440071
lhand  -1.496451383e-031 -27.76390076 20.11240005
lfingers  90 7.125020027 -90
lthumb  89.89689403 5.08795885 91.16245106
rclavicle  0 -9.442270133e-015 7.951389973e-016
rhumerus  7.622210026 22.68199921 -84.1072998
rradius  -1.948753048e-031 2.944691087e-031 123.4960022
rwrist  7.062250077e-031 7.062250077e-031 -47.83449936
rhand  -7.920061211e-032 -33.2840004 9.303460121
rfingers  -90 -7.125020027 -90
rthumb  -92.93752616 -24.25625642 -97.11982154
rfemur  -17.72870064 14.30459976 -2.407480001
rtibia  -0 0 65.91190338
rfoot  -0 -22.97979927 -8.06126976
rtoes  5.373923086 19.29304026 -105.8922705
lfemur  -24.9279995 -8.717129707 -1.86311996
ltibia  -0 0 62.44739914
lfoot  4.624545119e-032 -17.3593998 -4.546269894
ltoes  -4.250644065 -19.5611806 -102.515957
142
root  14.17113327 36.39022347 2.378844464 -8.779998779 -62.65799713 6.901000977
lowerback  12.43789959 1.101490021 -1.755349994
upperback  6.092410088 1.107360005 1.508229971
thorax  -0.6573789716 0.4200440049 2.415920019
lowerneck  1.505570054 8.536089897 0.9401220083
upperneck  10.30850029 11.37580013 -0.91090101
head  3.166520119 5.601689816 -0.1834899932
lclavicle  0 -9.442270133e-015 7.951389973e-016
lhumerus  -9.245300293 -9.366620064 95.60240173
lradius  2.505930058e-031 -2.487801958e-031 135.2079926
lwrist  -1.412450015e-030 -0 19.36560059
lhand  -1.496451383e-031 -27.76390076 20.11240005
lfingers  90 7.125020027 -90
lthumb  89.89689403 5.08795885 91.16245106
rclavicle  0 -9.442270133e-015 7.951389973e-016
rhumerus  6.447559834 22.28779984 -84.87889862
rradius  -1.956763275e-031 2.939374342e-031 123.6520004
rwrist  1.412450015e-030 1.765562519e-031 -47.81150055
rhand  -7.920061211e-032 -33.2840004 9.303460121
rfingers  -90 -7.125020027 -90
rthumb  -92.93752616 -24.25625642 -97.11982154
rfemur  -17.42749977 13.07960033 -1.937960029
rtibia  -0 0 66.47669983
rfoot  -0 -21.16040039 -7.445499897
rtoes  5.373923086 19.29304026 -105.8922705
lfemur  -25.31579971 -9.301159859 -1.46262002
ltibia  -0 0 61.37749863
lfoot  4.606118703e-032 -16.61050034 -4.967979908
ltoes  -4.250644065 -19.5611806 -102.515957
143
root  14.04904493 36.5804447 2.267244482 -7.934005737 -60.72599792 6.020996094
lowerback  12.15960026 1.097519994 -1.993890047
upperback  6.02850008 1.092370033 1.527950048
thorax  -0.5773209929 0.4121670127 2.575520039
lowerneck  1.790830016 8.172610283 0.6581869721
upperneck  10.62469959 10.82600021 -0.1901029944
head  3.150229931 5.337309837 0.06660190225
lclavicle  0 -9.442270133e-015 7.951389973e-016
lhumerus  -9.211660385 -9.943019867 95.66190338
lradius  2.46782343e-031 -2.525607166e-031 134.3370056
lwrist  -7.062250077e-031 8.827812596e-032 19.8715992
lhand  -1.496451383e-031 -27.76390076 20.11240005
lfingers  90 7.125020027 -90
lthumb  89.89689403 5.08795885 91.16245106
rclavicle  0 -9.442270133e-015 7.951389973e-016
rhumerus  5.374889851 21.63999939 -85.74980164
rradius  -1.962812534e-031 2.93533831e-031 123.7699966
rwrist  7.062250077e-031 7.062250077e-031 -47.69810104
rhand  -7.920061211e-032 -33.2840004 9.303460121
rfingers  -90 -7.125020027 -90
rthumb  -92.93752616 -24.25625642 -97.11982154
rfemur  -16.99909973 11.97980022 -1.434270024
rtibia  -0 0 66.92680359
rfoot  -0 -19.01709938 -7.0384202
rtoes  5.373923086 19.29304026 -105.8922705
lfemur  -25.50279999 -9.689020157 -1.100700021
ltibia  -0 0 60.10599899
lfoot  4.585652333e-032 -15.73060036 -5.583119869
ltoes  -4.250644065 -19.5611806 -102.515957
144
root  13.91413381 36.78488844 2.146708871 -7.925994873 -58.82299805 5.962005615
lowerback  11.97439957 1.237830043 -2.574389935
upperback  5.992199898 1.228299975 1.403779984
thorax  -0.5307310224 0.4744499922 2.75883007
lowerneck  1.901000023 7.767310143 0.3159199953
upperneck  11.25150013 10.19960022 0.7161849737
head  3.266289949 5.035109997 0.4029220045
lclavicle  0 -9.442270133e-015 7.951389973e-016
lhumerus  -9.063599586 -10.9527998 95.60520172
lradius  2.431560213e-031 -2.560538804e-031 133.5200043
lwrist  -7.062250077e-031 1.765562519e-031 20.13990021
lhand  -1.496451383e-031 -27.76390076 20.11240005
lfingers  90 7.125020027 -90
lthumb  89.89689403 5.08795885 91.16245106
rclavicle  0 -9.442270133e-015 7.951389973e-016
rhumerus  4.308279991 20.81439972 -86.54550171
rradius  -1.963990831e-031 2.93455006e-031 123.7929993
rwrist  0 5.296687558e-031 -47.54539871
rhand  -7.920061211e-032 -33.2840004 9.303460121
rfingers  -90 -7.125020027 -90
rthumb  -92.93752616 -24.25625642 -97.11982154
rfemur  -16.50889969 11.08940029 -1.314249992
rtibia  -0 0 67.27680206
rfoot  -4.610690563e-032 -16.79990005 -6.360980034
rtoes  5.373923086 19.29304026 -105.8922705
lfemur  -25.38699913 -9.78619957 -1.19938004
ltibia  -0 0 58.64889908
lfoot  4.566566025e-032 -14.85669994 -6.126480103
ltoes  -4.250644065 -19.5611806 -102.515957
145
root  13.7704669 36.9951113 2.01857334 -7.587005615 -56.94499969 5.578994751
lowerback  11.78499985 1.426130056 -2.980240107
upperback  5.921909809 1.449409962 1.337110043
thorax  -0.5229870081 0.5832579732 2.893140078
lowerneck  1.829450011 7.255839825 0.05646380037
upperneck  12.10579967 9.441169739 1.414270043
head  3.524620056 4.664000034 0.6774460077
lclavicle  0 -9.442270133e-015 7.951389973e-016
lhumerus  -8.604120255 -12.24429989 95.28379822
lradius  2.395526753e-031 -2.594281329e-031 132.7189941
lwrist  -7.062250077e-031 -0 20.57130051
lhand  -1.496451383e-031 -27.76390076 20.11240005
lfingers  90 7.125020027 -90
lthumb  89.89689403 5.08795885 91.16245106
rclavicle  0 -9.442270133e-015 7.951389973e-016
rhumerus  3.36638999 19.94860077 -87.14720154
rradius  -1.96178796e-031 2.936023167e-031 123.75
rwrist  0 5.296687558e-031 -47.48630142
rhand  -7.920061211e-032 -33.2840004 9.303460121
rfingers  -90 -7.125020027 -90
rthumb  -92.93752616 -24.25625642 -97.11982154
rfemur  -16.0916996 10.4758997 -0.9421160221
rtibia  -0 0 67.53790283
rfoot  -4.562913319e-032 -14.68280029 -5.50466013
rtoes  5.373923086 19.29304026 -105.8922705
lfemur  -25.25810051 -9.849329948 -1.055819988
ltibia  -0 0 57.04349899
lfoot  9.089849614e-032 -13.79080009 -6.745440006
ltoes  -4.250644065 -19.5611806 -102.515957
146
root  13.61728878 37.23777711 1.880657767 -6.723999023 -55.05400085 4.54699707
lowerback  11.68179989 1.694270015 -3.018709898
upperback  5.80189991 1.813619971 1.347769976
thorax  -0.6200919747 0.7724609971 2.881200075
lowerneck  1.893509984 6.553309917 0.03526100144
upperneck  12.83250046 8.43350029 1.937270045
head  3.748080015 4.177609921 0.8442909718
lclavicle  0 -9.442270133e-015 7.951389973e-016
lhumerus  -8.284440041 -13.65610027 95.0664978
lradius  2.364386559e-031 -2.622693317e-031 132.0350037
lwrist  -7.062250077e-031 8.827812596e-032 21.21190071
lhand  -1.496451383e-031 -27.76390076 20.11240005
lfingers  90 7.125020027 -90
lthumb  89.89689403 5.08795885 91.16245106
rclavicle  0 -9.442270133e-015 7.951389973e-016
rhumerus  2.495500088 18.60180092 -87.6595993
rradius  -1.965373509e-031 2.93362421e-031 123.8199997
rwrist  7.062250077e-031 7.062250077e-031 -47.78070068
rhand  -7.920061211e-032 -33.2840004 9.303460121
rfingers  -90 -7.125020027 -90
rthumb  -92.93752616 -24.25625642 -97.11982154
rfemur  -15.64340019 10.15979958 0.0002038219973
rtibia  -0 0 67.67150116
rfoot  -4.522393583e-032 -12.57520008 -4.902170181
rtoes  5.373923086 19.29304026 -105.8922705
lfemur  -25.1140995 -10.04049969 -0.4322290123
ltibia  -0 0 55.31219864
lfoot  -0 -12.53610039 -7.54076004
ltoes  -4.250644065 -19.5611806 -102.515957
147
root  13.45237822 37.49399861 1.733584479 -6.128997803 -53.16899872 3.919006348
lowerback  11.57059956 2.047359943 -3.217600107
upperback  5.649809837 2.272190094 1.210809946
thorax  -0.7531160116 1.00917995 2.793639898
lowerneck  2.188080072 5.866119862 -0.2646639943
upperneck  13.20059967 7.384009838 3.094150066
head  3.77215004 3.68565011 1.24368
lclavicle  0 -9.442270133e-015 7.951389973e-016
lhumerus  -8.114549637 -15.01920033 94.87740326
lradius  2.336561102e-031 -2.647513221e-031 131.4299927
lwrist  -1.412450015e-030 -0 21.82069969
lhand  -1.496451383e-031 -27.76390076 20.11240005
lfingers  90 7.125020027 -90
lthumb  89.89689403 5.08795885 91.16245106
rclavicle  0 -9.442270133e-015 7.951389973e-016
rhumerus  1.690129995 16.9496994 -88.20909882
rradius  -1.97406899e-031 2.927779989e-031 123.9899979
rwrist  0 7.062250077e-031 -48.19319916
rhand  -7.920061211e-032 -33.2840004 9.303460121
rfingers  -90 -7.125020027 -90
rthumb  -92.93752616 -24.25625642 -97.11982154
rfemur  -15.38739967 9.91174984 0.7252730131
rtibia  -0 0 67.72360229
rfoot  -4.482087608e-032 -10.00650024 -4.510990143
rtoes  5.373923086 19.29304026 -105.8922705
lfemur  -25.05470085 -10.06309986 0.04143249989
ltibia  -0 0 53.50350189
lfoot  -0 -11.0152998 -8.608989716
ltoes  -4.250644065 -19.5611806 -102.515957
